<?xml version="1.0" encoding="UTF-8"?>
<svg width="170px" height="62px" viewBox="0 0 170 54" version="1.1" xmlns="http://www.w3.org/2000/svg" xmlns:xlink="http://www.w3.org/1999/xlink">
    <!-- Generator: Sketch 51.3 (57544) - http://www.bohemiancoding.com/sketch -->
    <title>logo</title>
    <desc>Created with Sketch.</desc>
    <defs>
        <radialGradient cx="6.34147405%" cy="-9.65724848%" fx="6.34147405%" fy="-9.65724848%" r="146.636326%" gradientTransform="translate(0.063415,-0.096572),scale(1.000000,0.892857),rotate(-135.191238),translate(-0.063415,0.096572)" id="radialGradient-1">
            <stop stop-color="#31F762" offset="0%"></stop>
            <stop stop-color="#00758C" offset="100%"></stop>
        </radialGradient>
        <path d="M1.55874864,9.34700229 L17.1316538,0.413032692 C18.1011732,-0.14316775 19.3252264,-0.122250967 20.2651721,0.383050041 L35.9251269,9.39728977 C36.9000869,9.96285241 37.4953301,10.9873002 37.5007707,12.1090633 L37.4571968,29.9715118 C37.4626374,31.0932749 36.8338274,32.0968059 35.864308,32.6530063 L20.2914029,41.5869759 C19.3218835,42.1431764 18.0978303,42.1222596 17.1578846,41.6169586 L1.5679584,32.7232421 C1.0804784,32.4404608 0.679174021,32.0278928 0.434073872,31.6060614 C0.188973724,31.1842299 -0.00496511551,30.5723502 0.0273288897,30.0717303 L0.000874196964,12.0887584 C-0.00456640644,10.9669953 0.528634295,9.93796526 1.55874864,9.34700229 Z" id="path-2"></path>
        <filter x="-46.7%" y="-29.8%" width="193.3%" height="183.3%" filterUnits="objectBoundingBox" id="filter-4">
            <feOffset dx="0" dy="5" in="SourceAlpha" result="shadowOffsetOuter1"></feOffset>
            <feGaussianBlur stdDeviation="5" in="shadowOffsetOuter1" result="shadowBlurOuter1"></feGaussianBlur>
            <feColorMatrix values="0 0 0 0 0   0 0 0 0 0.529411765   0 0 0 0 0.125490196  0 0 0 0.3 0" type="matrix" in="shadowBlurOuter1"></feColorMatrix>
        </filter>
        <linearGradient x1="75.5756979%" y1="87.9373062%" x2="-20.7216401%" y2="21.7994957%" id="linearGradient-5">
            <stop stop-color="#4F65DE" stop-opacity="0" offset="0%"></stop>
            <stop stop-color="#1E073C" offset="100%"></stop>
        </linearGradient>
        <linearGradient x1="60.9668383%" y1="-5.73572086%" x2="36.4868681%" y2="125.664473%" id="linearGradient-6">
            <stop stop-color="#447DE8" stop-opacity="0.1" offset="0%"></stop>
            <stop stop-color="#D7E4FF" offset="100%"></stop>
        </linearGradient>
        <path d="M2.83806818,12.1065341 L7.77554713,12.1065341 L8.15108949,9.26846591 L2.83806818,9.26846591 L2.83806818,8.953125 C2.83806818,7.64903267 3.89903267,6.58806818 5.203125,6.58806818 L8.91530385,6.58806818 L9.40108652,3.75 L5.203125,3.75 C2.33415341,3.75 0,6.08415341 0,8.953125 L0,12.421875 C0,15.2908466 2.33415341,17.625 5.203125,17.625 L7.02530811,17.625 L7.51124845,14.7869318 L5.203125,14.7869318 C3.89903267,14.7869318 2.83806818,13.7259673 2.83806818,12.421875 L2.83806818,12.1065341 Z" id="path-7"></path>
        <filter x="-42.5%" y="-14.4%" width="185.1%" height="157.7%" filterUnits="objectBoundingBox" id="filter-8">
            <feOffset dx="0" dy="2" in="SourceAlpha" result="shadowOffsetOuter1"></feOffset>
            <feGaussianBlur stdDeviation="1" in="shadowOffsetOuter1" result="shadowBlurOuter1"></feGaussianBlur>
            <feColorMatrix values="0 0 0 0 0.149019608   0 0 0 0 0.223529412   0 0 0 0 0.694117647  0 0 0 0.2 0" type="matrix" in="shadowBlurOuter1"></feColorMatrix>
        </filter>
        <path d="M11.7506207,0 L11.2648381,2.83806818 L13.2759104,2.83806818 C14.5800027,2.83806818 15.6409672,3.89903267 15.6409672,5.203125 L15.6409672,8.671875 C15.6409672,9.97596733 14.5800027,11.0369318 13.2759104,11.0369318 L9.86078267,11.0369318 L9.375,13.875 L13.2759104,13.875 C16.144882,13.875 18.4790354,11.5408466 18.4790354,8.671875 L18.4790354,5.203125 C18.4790354,2.33415341 16.144882,0 13.2759104,0 L11.7506207,0 Z" id="path-9"></path>
        <filter x="-43.9%" y="-14.4%" width="187.9%" height="157.7%" filterUnits="objectBoundingBox" id="filter-10">
            <feOffset dx="0" dy="2" in="SourceAlpha" result="shadowOffsetOuter1"></feOffset>
            <feGaussianBlur stdDeviation="1" in="shadowOffsetOuter1" result="shadowBlurOuter1"></feGaussianBlur>
            <feColorMatrix values="0 0 0 0 0.149019608   0 0 0 0 0.223529412   0 0 0 0 0.694117647  0 0 0 0.2 0" type="matrix" in="shadowBlurOuter1"></feColorMatrix>
        </filter>
    </defs>
    <g id="Symbols" stroke="none" stroke-width="1" fill="none" fill-rule="evenodd">
        <g id="Header" transform="translate(-156.000000, -18.000000)">
            <g id="logo">
                <g transform="translate(166.000000, 23.000000)">
                    <g id="Group-2">
                        <g id="Page-1-Copy-10">
                            <mask id="mask-3" fill="white">
                                <use xlink:href="#path-2"></use>
                            </mask>
                            <g id="Fill-1" fill-rule="nonzero">
                                <use fill="black" fill-opacity="1" filter="url(#filter-4)" xlink:href="#path-2"></use>
                                <use fill="url(#radialGradient-1)" xlink:href="#path-2"></use>
                            </g>
                            <path d="M18.75,38.1757354 L18.75,26.3582215 C18.75,23.5057694 20.2687953,20.8690987 22.7362553,19.4379719 L34.4965638,12.616993 C35.4520509,12.0628105 36.6758799,12.3881321 37.2300624,13.3436192 C37.4068777,13.6484732 37.5,13.9946357 37.5,14.3470554 L37.5,32.25 L22.5,41.25 L22.5,41.25 C20.8021305,41.5895739 19.1504563,40.4884578 18.8108824,38.7905883 C18.7703932,38.5881419 18.75,38.382191 18.75,38.1757354 Z" id="Path-5" fill-opacity="0.25" fill="url(#linearGradient-5)" mask="url(#mask-3)"></path>
                            <path d="M2.39106422,12.44786 L14.7152863,19.455751 C17.2103382,20.874506 20.2742288,20.8479054 22.7442712,19.3860435 L36.1044816,11.4789803 C36.6999458,11.1265627 36.9688094,10.4064283 36.75,9.75 L18.75,-0.75 L1.875,8.625 L1.875,8.625 C0.927954423,9.57204558 0.927954423,11.1075098 1.875,12.0545554 C2.02862671,12.2081821 2.2022014,12.3404675 2.39106422,12.44786 Z" id="Path-6" fill-opacity="0.350000024" fill="url(#linearGradient-6)" style="mix-blend-mode: overlay;" mask="url(#mask-3)"></path>
                            <g id="EO" mask="url(#mask-3)">
                                <g transform="translate(9.375000, 12.375000)">
                                    <g id="Fill-1">
                                        <use fill="black" fill-opacity="1" filter="url(#filter-8)" xlink:href="#path-7"></use>
                                        <use fill="#FFFFFF" fill-rule="evenodd" xlink:href="#path-7"></use>
                                    </g>
                                    <g id="Fill-3">
                                        <use fill="black" fill-opacity="1" filter="url(#filter-10)" xlink:href="#path-9"></use>
                                        <use fill="#FFFFFF" fill-rule="evenodd" xlink:href="#path-9"></use>
                                    </g>
                                </g>
                            </g>
                        </g>
                    </g>
                    <g id="Group" transform="translate(51.000000, 14.000000)" fill="#463D75">
                        <path d="M12.8730806,8.62104127 L3.17418426,8.62104127 C3.37571977,10.1577495 4.71089251,11.2661948 6.87739923,11.2661948 C8.01103647,11.2661948 9.49736084,10.8379319 10.2027351,10.1073656 L12.1677063,12.0471449 C10.8577255,13.4075096 8.71641075,14.0625 6.82701536,14.0625 C2.5443858,14.0625 0,11.4173464 0,7.43702015 C0,3.65822937 2.56957774,0.9375 6.60028791,0.9375 C10.7569578,0.9375 13.3517274,3.50707774 12.8730806,8.62104127 Z M3.22456814,6.07665547 L9.9256238,6.07665547 C9.72408829,4.4643714 8.46449136,3.65822937 6.70105566,3.65822937 C5.03838772,3.65822937 3.67802303,4.4643714 3.22456814,6.07665547 Z M20.6133037,1.06345969 C24.5684381,1.06345969 27.1128239,3.98572457 27.1128239,7.53778791 C27.1128239,11.1150432 24.6692058,14.0121161 20.6384957,14.0121161 C16.6077855,14.0121161 14.1893594,11.1150432 14.1893594,7.53778791 C14.1893594,3.98572457 16.6581694,1.06345969 20.6133037,1.06345969 Z M20.6384957,3.85976488 C18.4216051,3.85976488 17.2627759,5.67358445 17.2627759,7.53778791 C17.2627759,9.4271833 18.3964131,11.190619 20.6384957,11.190619 C22.8805782,11.190619 24.0142154,9.4271833 24.0142154,7.53778791 C24.0142154,5.67358445 22.7042346,3.85976488 20.6384957,3.85976488 Z" id="eo-copy"></path>
                        <path d="M27.5300481,12.6421233 C27.5300481,14.6626712 30.5878392,14.6626712 30.5878392,12.6421233 C30.5878392,10.6215753 27.5300481,10.6215753 27.5300481,12.6421233 Z M35.1065595,9.35252568 L35.1065595,13.7748288 L34.8721845,14.0092038 L32.4988969,14.0092038 L32.2645219,13.7748288 L32.2645219,1.20719178 L32.4988969,0.972816781 L41.5425612,0.972816781 L41.7769362,1.20719178 L41.7769362,3.49058219 L41.5425612,3.72495719 L35.1065595,3.72495719 L35.1065595,6.69028253 L41.1829722,6.69028253 L41.4173472,6.92465753 L41.4173472,9.11815068 L41.1829722,9.35252568 L35.1065595,9.35252568 Z M45.6209332,14.0092038 L43.265625,14.0092038 L43.03125,13.7748288 L43.03125,1.18921233 L43.265625,0.954837329 L45.6209332,0.954837329 L45.8553082,1.18921233 L45.8553082,13.7748288 L45.6209332,14.0092038 Z M55.3231691,1.17123288 L55.5575441,0.936857877 L57.9308318,0.936857877 L58.1652068,1.17123288 L58.1652068,13.7748288 L57.9308318,14.0092038 L56.4565167,14.0092038 L56.4565167,13.8732433 L56.2715334,13.9367276 L50.0744534,5.97145905 L50.0744534,13.7748288 L49.8400784,14.0092038 L47.4667907,14.0092038 L47.2324157,13.7748288 L47.2324157,1.18921233 L47.4667907,0.954837329 L49.3905921,0.954837329 L49.574473,1.04388706 L55.3231691,8.31774743 L55.3231691,1.17123288 Z M61.5115429,13.8718138 L61.2981757,14.0092038 L58.7271141,14.0092038 L58.5132683,13.6789037 L64.1588162,1.09328722 L64.372662,0.954837329 L66.9617031,0.954837329 L67.1755489,1.09328722 L72.8210968,13.6789037 L72.6072511,14.0092038 L70.01821,14.0092038 L69.8042364,13.8704685 L68.8054592,11.6359161 L62.52786,11.6359161 L61.5115429,13.8718138 Z M65.6671826,4.41834836 L63.6878038,8.95569349 L67.6465613,8.95569349 L65.6671826,4.41834836 Z M81.6374802,8.31774743 L81.6374802,1.17123288 L81.8718552,0.936857877 L84.2451429,0.936857877 L84.4795179,1.17123288 L84.4795179,13.7748288 L84.2451429,14.0092038 L82.7708278,14.0092038 L82.7708278,13.8732433 L82.5858445,13.9367276 L76.3887645,5.97145905 L76.3887645,13.7748288 L76.1543895,14.0092038 L73.7811018,14.0092038 L73.5467268,13.7748288 L73.5467268,1.18921233 L73.7811018,0.954837329 L75.7049032,0.954837329 L75.8887841,1.04388706 L81.6374802,8.31774743 Z M95.8296489,10.3916968 L97.4477996,12.027827 L97.4457235,12.35952 C96.1428188,13.6443289 94.4328621,14.296875 92.4986241,14.296875 C88.1327613,14.296875 85.6152902,11.4706081 85.5938759,7.57319853 C85.5727178,3.70126529 88.2197245,0.703125 92.4986241,0.703125 C94.2921707,0.703125 95.9626937,1.39155377 97.2839085,2.69441836 L97.2821731,3.02987808 L95.6999813,4.5581315 L95.3732544,4.55709402 C94.6268462,3.82691206 93.5923217,3.43728596 92.4986241,3.43728596 C89.9065922,3.43728596 88.3799547,5.23132816 88.3999425,7.56989741 C88.4202534,9.92596742 89.8593408,11.5986729 92.4986241,11.5986729 C93.5814819,11.5986729 94.7454841,11.1425741 95.4972795,10.3907787 L95.8296489,10.3916968 Z M107.905608,11.203125 L108.139983,11.4375 L108.139983,13.7748288 L107.905608,14.0092038 L98.484375,14.0092038 L98.25,13.7748288 L98.25,1.18921233 L98.484375,0.954837329 L107.905608,0.954837329 L108.139983,1.18921233 L108.139983,3.49058219 L107.905608,3.72495719 L101.074058,3.72495719 L101.074058,6.15089897 L107.653896,6.15089897 L107.888271,6.38527397 L107.888271,8.59674658 L107.653896,8.83112158 L101.074058,8.83112158 L101.074058,11.203125 L107.905608,11.203125 Z" id=".Finance" fill-rule="nonzero"></path>
                    </g>
                </g>
            </g>
        </g>
    </g>
</svg>
